# xmcd CD database file
#
# Track frame offsets:
#	150
#	21832
#	49938
#	77430
#	99349
#	119932
#	146689
#	170908
#	191153
#
# Disc length: 2744 seconds
#
# Revision: 0
# Processed by: cddbd v1.5.1PL0 Copyright (c) Steve Scherf et al.
# Submitted via: CDex 1.51
#
DISCID=810ab609
DTITLE=Jeff Oster - Released
DYEAR=2005
DGENRE=New Age
TTITLE0=Fools Gold
TTITLE1=Big Sur
TTITLE2=Final Approach
TTITLE3=Behind The Veil
TTITLE4=Released
TTITLE5=Matt's Mood
TTITLE6=As I Live And Breathe
TTITLE7=Haleakala
TTITLE8=At Last
EXTD=YEAR: 2005
EXTT0=
EXTT1=
EXTT2=
EXTT3=
EXTT4=
EXTT5=
EXTT6=
EXTT7=
EXTT8=
PLAYORDER=
